<svg xmlns="http://www.w3.org/2000/svg" version="1.1" xmlns:xlink="http://www.w3.org/1999/xlink" xmlns:svgjs="http://svgjs.dev/svgjs" width="1000" height="1125" viewBox="0 0 1000 1125"><g transform="matrix(1,0,0,1,0,0)"><svg viewBox="0 0 320 360" data-background-color="#ffffff" preserveAspectRatio="xMidYMid meet" height="1125" width="1000" xmlns="http://www.w3.org/2000/svg" xmlns:xlink="http://www.w3.org/1999/xlink"><g id="tight-bounds" transform="matrix(1,0,0,1,0,0)"><svg viewBox="0 0 320 360" height="360" width="320"><g><svg></svg></g><g><svg viewBox="0 0 320 360" height="360" width="320"><g><path d="M320 187.111c0-45.764-20.238-86.866-52.203-114.908-28.043-31.964-69.145-52.203-114.908-52.203-84.302 0-152.889 68.587-152.889 152.889 0 45.753 20.231 86.848 52.185 114.891 28.043 31.975 69.152 52.22 114.926 52.22 0.299 0 0.59-0.021 0.889-0.021 0.299 0 0.59 0.021 0.889 0.021 83.456 0 151.111-67.655 151.111-151.111 0-0.299-0.021-0.59-0.021-0.889 0-0.299 0.021-0.59 0.021-0.889zM59.833 263.097c-15.093-21.255-24.071-47.143-24.256-75.097 0.48-72.928 59.492-131.943 132.423-132.423 27.954 0.185 53.845 9.163 75.097 24.256 24.366 23.627 39.57 56.64 39.57 93.056 0 71.559-58.219 129.778-129.778 129.778-36.416 0-69.429-15.204-93.056-39.57zM3.556 172.889c0-82.343 66.99-149.333 149.333-149.333 35.051 0 67.292 12.167 92.8 32.462-22.98-13.824-49.863-21.796-78.578-21.796-84.302 0-152.889 68.587-152.889 152.889 0 28.708 7.968 55.584 21.785 78.56-20.288-25.5-32.452-57.739-32.451-92.782zM167.111 318.667c-35.84 0-68.363-14.418-92.107-37.743 21.952 15.89 48.864 25.298 77.885 25.298 73.522 0 133.333-59.812 133.333-133.333 0-29.02-9.408-55.932-25.298-77.885 23.324 23.744 37.742 56.267 37.743 92.107 0 72.54-59.015 131.556-131.556 131.556z" fill="#ff5421" fill-rule="nonzero" stroke="none" stroke-width="1" stroke-linecap="butt" stroke-linejoin="miter" stroke-miterlimit="10" stroke-dasharray="" stroke-dashoffset="0" font-family="none" font-weight="none" font-size="none" text-anchor="none" style="mix-blend-mode: normal" data-fill-palette-color="tertiary"></path></g><g transform="matrix(1,0,0,1,64,148.11967090501122)"><svg viewBox="0 0 192 63.76065818997756" height="63.76065818997756" width="192"><g><svg viewBox="0 0 192 63.76065818997756" height="63.76065818997756" width="192"><g><svg viewBox="0 0 192 63.76065818997756" height="63.76065818997756" width="192"><g><svg viewBox="0 0 192 63.76065818997756" height="63.76065818997756" width="192"><g id="textblocktransform"><svg viewBox="0 0 192 63.76065818997756" height="63.76065818997756" width="192" id="textblock"><g><svg viewBox="0 0 192 63.76065818997756" height="63.76065818997756" width="192"><g transform="matrix(1,0,0,1,0,0)"><svg width="192" viewBox="4.35 -35.4 133.69 44.4" height="63.76065818997756" data-palette-color="#ff5421"><path d="M12.55-18.1L31.9 0 26.6 0 8.45-16.75 8.45 0 4.35 0 4.35-35.25 8.45-35.25 8.45-19.05 25.75-35.25 30.95-35.25 12.55-18.1ZM51.1-24.35L55.15-24.35 55.15 0 51.2 0 51.2-4.15Q50.05-1.95 47.97-0.8 45.9 0.35 43.3 0.35L43.3 0.35Q38.95 0.35 36.75-2.08 34.55-4.5 34.55-9.25L34.55-9.25 34.55-24.35 38.6-24.35 38.6-9.35Q38.6-6.1 39.9-4.58 41.2-3.05 44-3.05L44-3.05Q47.2-3.05 49.15-5.13 51.1-7.2 51.1-10.6L51.1-10.6 51.1-24.35ZM81.45-21.4L66.35-3.2 82-3.2 82 0 61.35 0 61.35-2.8 76.55-21.15 61.85-21.15 61.85-24.35 81.45-24.35 81.45-21.4ZM91.89 0L87.84 0 87.84-24.35 91.89-24.35 91.89 0ZM87.44-30.35L87.44-34.9 92.34-34.9 92.34-30.35 87.44-30.35ZM104.84-25.7L104.84-24.35 111.74-24.35 111.74-21.15 104.84-21.15 104.84 0 100.79 0 100.79-21.15 96.04-21.15 96.04-24.35 100.79-24.35 100.79-25.15Q100.79-30 103.22-32.5 105.64-35 110.69-35.3L110.69-35.3 112.69-35.4 112.99-32.25 110.69-32.1Q107.64-31.9 106.24-30.38 104.84-28.85 104.84-25.7L104.84-25.7ZM125.74-4.4L133.99-24.3 138.04-24.3 123.64 9 119.49 9 123.59-0.3 113.29-24.3 117.59-24.3 125.74-4.4Z" opacity="1" transform="matrix(1,0,0,1,0,0)" fill="#ff5421" class="undefined-text-0" data-fill-palette-color="primary" id="text-0"></path></svg></g></svg></g></svg></g></svg></g></svg></g></svg></g></svg></g></svg></g><defs></defs></svg><rect width="320" height="360" fill="none" stroke="none" visibility="hidden"></rect></g></svg></g></svg>